<?xml version="1.0" encoding="UTF-8"?>
<svg width="500" height="155.21" version="1.1" viewBox="0 0 500 155.21382" xmlns="http://www.w3.org/2000/svg" xmlns:cc="http://creativecommons.org/ns#" xmlns:dc="http://purl.org/dc/elements/1.1/" xmlns:rdf="http://www.w3.org/1999/02/22-rdf-syntax-ns#"><metadata><rdf:RDF><cc:Work rdf:about=""><dc:format>image/svg+xml</dc:format><dc:type rdf:resource="http://purl.org/dc/dcmitype/StillImage"/><dc:title/></cc:Work></rdf:RDF></metadata><g stroke-width="2.7202"><path class="cls-1" d="m7.3717 7.3172c0-1.2513-3.4003-4.4611-4.4611-4.4611h-2.9106v-2.8562h16.947l17.491 43.877h0.35363l18.389-43.877h15.152v2.8562h-2.7202c-1.0609 0-4.4611 3.2098-4.4611 4.4611v43.714c0 1.2513 3.4002 4.4611 4.4611 4.4611h2.7202v2.8834h-22.414v-2.8834h2.8562c1.0609 0 4.4611-3.2098 4.4611-4.4611v-42.462l-21.245 50.65-21.109-51.548v43.17c0 1.2513 3.4002 4.4611 4.4611 4.4611h2.8562v2.8562h-18.198v-2.8562h2.7202c1.0609 0 4.4611-3.2098 4.4611-4.4611z"/><path class="cls-1" d="m92.84 33.35c1.0609-5.8756 0-11.044-6.4469-11.044-7.4806 0-11.234 6.066-11.234 14.798 0 8.7318 5.4404 15.342 13.927 15.342a11.833 11.833 0 0 0 11.942 -6.7733h2.3394c-2.5026 8.1606-7.5078 13.383-16.974 13.383-10.5 0-17.3-8.8407-17.3-19.721 0-12.132 8.0246-20.157 18.035-20.157a17.137 17.137 0 0 1 13.383 5.4404l-5.4404 8.5686z"/><path class="cls-1" d="m169.01 11.588a4.7331 4.7331 0 0 0 4.8148 -4.8964 4.5699 4.5699 0 0 0 -4.8148 -4.8148 4.9236 4.9236 0 1 0 0 9.8199z"/><path class="cls-1" d="m222.54 55.302c-1.0609 0-4.1075-2.7202-4.1075-3.9171v-21.054a10.255 10.255 0 0 0 -10.527 -10.718c-6.7733 0-10.337 3.9443-14.798 8.5686l-1.4417-7.8886h-11.942v2.7202h2.3122c1.0609 0 4.1075 2.8562 4.1075 3.9443v24.074c0 1.2513-3.0466 3.9171-4.1075 3.9171h-4.6243c-1.0881 0-4.1075-2.7202-4.1075-3.9171v-30.738h-13.601v2.7202h2.3122c1.0881 0 4.1075 2.8562 4.1075 3.9443v24.074c0 1.2513-3.0194 3.9171-4.1075 3.9171h-4.2435a21.435 21.435 0 0 1 -6.9637 -4.7331l-20.238-26.848 14.091-15.179a27.637 27.637 0 0 1 7.4806 -5.4404h2.7202v-2.7474h-21.054v2.8562h2.8562c1.0609 0 4.4611 3.9171 3.5635 4.978l-20.81 23.339v-23.856c0-1.2513 3.373-4.4611 4.4611-4.4611h2.7202v-2.8562h-22.523v2.8562h2.7202c1.0609 0 4.4611 3.2098 4.4611 4.4611v43.714c0 1.2513-3.4002 4.4611-4.4611 4.4611h-2.7202v2.8834h22.659v-2.8834h-2.7202c-1.0881 0-4.4611-3.2098-4.4611-4.4611v-15.342l5.8756-6.4469 20.021 29.133h54.078v-2.8834h-2.149c-1.0609 0-4.1075-2.7202-4.1075-3.9443v-19.449c0-2.4754 6.9637-7.8342 12.323-7.8342a5.794 5.794 0 0 1 6.066 6.4197v20.701c0 1.2513-3.0466 3.9171-4.1075 3.9171h-2.149v2.8562h19.286v-2.8562z"/><path class="cls-1" d="m229.5 44.965c0 3.5635 5.1684 11.044 13.193 11.044 4.6515 0 7.3173-1.6049 7.3173-5.1684 0-4.2707-3.7539-5.7124-7.1269-7.1269-2.7202-1.0881-4.8148-1.9585-7.8614-3.4003-4.6243-2.149-8.1606-5.1684-8.1606-10.337 0-6.8005 4.1075-10.718 11.425-10.718 4.1075 0 6.4197 1.9585 9.2759 1.9585 1.0609 0 1.7681-0.16321 2.1218-1.0609h2.149v11.588h-2.3122a12.105 12.105 0 0 0 -11.425 -9.7927c-4.4611 0-6.4197 1.9585-6.4197 4.978 0 3.0194 2.3122 4.4611 6.066 6.066 2.8562 1.2513 5.0052 2.149 8.1606 3.4002 4.1075 1.6049 8.7318 4.8148 8.7318 10.881 0 7.1269-5.0052 11.425-12.132 11.425-4.8148 0-7.671-2.3394-10.881-2.3394a3.1282 3.1282 0 0 0 -2.8562 1.2513h-1.7953v-13.193h2.3394z"/><path class="cls-1" d="m257.14 39.334c0-11.234 7.671-19.993 17.328-19.803a13.111 13.111 0 0 1 13.601 13.193l0.16321 2.7202-25.162 1.9857c0 7.671 5.4404 15.152 13.737 15.152a11.724 11.724 0 0 0 11.778 -6.7733h2.4754c-2.5026 8.1606-7.1541 13.383-16.321 13.383-10.636-0.13601-17.6-9.2487-17.6-19.857zm24.808-6.066c0.70725-5.4404-0.19041-10.718-7.671-10.718s-10.881 6.4197-11.234 12.323z"/><path class="cls-1" d="m294.98 27.474a12.05 12.05 0 0 0 -4.8148 -4.2979h-1.6049v-2.8834h19.966v2.7202h-2.3122c-1.0609 0-3.4002 2.7202-3.4002 4.1075l8.759 20.374 8.5686-20.157a5.6852 5.6852 0 0 0 -3.2098 -4.1075h-2.3394v-2.9378h15.179v2.7202h-1.7953c-0.89767 0-3.5635 2.8562-4.4611 4.1075l-12.839 29.079-9.4663 20.891-3.373-1.6049 9.9831-20.701z"/><path class="cls-1" d="m112.45 88.298a11.452 11.452 0 0 0 8.1606 10.364c7.4806 8.0246 16.593 16.593 24.482 23.72a22.034 22.034 0 0 0 3.0466 -12.323c0-5.4404-3.5635-8.5686-9.2759-8.759v-2.7202h20.701v2.7202h-2.3394a12.241 12.241 0 0 0 -5.1684 6.2565 30.085 30.085 0 0 1 -4.978 16.321 139.3 139.3 0 0 0 11.751 9.4391h3.5907v2.7202h-6.4469a19.694 19.694 0 0 1 -14.526 -5.794 25.733 25.733 0 0 1 -19.041 7.0181 17.763 17.763 0 0 1 -18.361 -17.137 21.354 21.354 0 0 1 9.2759 -17.654 18.008 18.008 0 0 1 -4.5155 -12.186c0-8.4054 5.4404-13.03 13.927-13.03 5.4404 0 8.1606 1.7681 10.69 1.7681 1.2513 0 2.149 0 2.7202-1.0609h2.5026v13.601h-2.6386c0-3.9171-5.7124-11.778-13.601-11.778-6.2021 0.13601-9.9559 3.0738-9.9559 8.5142zm-2.5026 27.855c0 8.3782 8.9223 16.321 17.137 16.321a20.646 20.646 0 0 0 12.676 -3.9171 294.76 294.76 0 0 1 -25.162 -24.618 15.832 15.832 0 0 0 -4.6516 12.214z"/><path class="cls-1" d="m222 98.471c0-6.066-6.7733-18.198-17.654-18.198-9.9831 0-16.049 5.4404-17.137 18.742a103.37 103.37 0 0 0 0.19041 14.798 19.286 19.286 0 0 0 19.803 18.552c9.9831 0 14.988-4.2707 18.742-11.942h3.0194a23.747 23.747 0 0 1 -23.557 16.593c-16.756 0-27.474-13.601-27.474-30.33s9.8199-29.922 26.06-29.922c6.2293 0 10.174 2.5026 14.635 2.5026a4.0803 4.0803 0 0 0 3.5635 -1.6049h2.149v20.701h-2.3394z"/><path class="cls-1" d="m232.88 117.21c0-12.323 8.759-19.993 18.742-19.993 9.9831 0 18.742 7.671 18.742 19.993 0 12.322-8.759 20.048-18.742 20.048a19.041 19.041 0 0 1 -18.742 -20.048zm29.922 6.2565a50.922 50.922 0 0 0 0 -12.867c-0.70725-6.066-4.1075-10.174-11.044-10.174s-10.174 4.1075-11.071 10.01a50.705 50.705 0 0 0 0 12.839c0.89767 5.8756 4.1075 10.174 11.071 10.174s10.391-4.1075 11.098-9.9831z"/><path class="cls-1" d="m331.86 129.1c0 1.2513 2.8562 3.9443 3.9171 3.9443h1.7953v2.7202h-19.041v-2.7202h2.1218c1.0881 0 3.9443-2.7202 3.9443-3.9443v-20.81a5.4404 5.4404 0 0 0 -5.9028 -6.2565c-4.978 0-11.044 4.842-11.044 7.3173v19.749c0 1.2513 2.7202 3.9443 3.9171 3.9443h2.149v2.7202h-19.286v-2.7202h2.0674c1.0609 0 3.9171-2.7202 3.9171-3.9443v-20.81a5.6036 5.6036 0 0 0 -6.066 -6.2565c-5.0052 0-11.071 5.0052-11.071 7.671v19.64c0 1.2513 2.8562 3.9171 3.9443 3.9171h2.1218v2.7202h-19.259v-2.7202h2.149c1.0609 0 3.9171-2.7202 3.9171-3.9171v-24.264c0-1.2513-2.8562-3.9171-3.9171-3.9171h-2.149v-2.7202h11.588l1.6049 7.3173c4.2979-4.6515 7.1541-8.1606 13.764-8.1606a9.2759 9.2759 0 0 1 9.9831 8.1606c4.6243-4.6515 7.671-7.8614 13.9-7.8614a10.038 10.038 0 0 1 10.364 10.718v20.483z"/><path class="cls-1" d="m348.68 98.308 1.2513 7.671a14.363 14.363 0 0 1 13.737 -8.759c9.2759 0 14.798 7.671 14.798 19.286 0 11.615-6.4197 20.32-15.505 20.32a12.839 12.839 0 0 1 -12.839 -7.4806v18.008c0 1.2513 3.0194 3.9443 3.9171 3.9443h2.5026v2.7202h-19.993v-2.7202h2.5026c1.0609 0 3.9171-2.7202 3.9171-3.9443v-42.272c0-1.2513-2.8562-3.9171-3.9171-3.9171h-2.5026v-2.7202zm1.2513 13.601v10.119a10.881 10.881 0 0 0 10.881 10.881c6.4197 0 9.4663-4.1075 10.337-9.9831a38.872 38.872 0 0 0 0 -11.234c-0.70726-6.066-4.0803-9.8199-9.4391-9.8199-6.4197-0.19042-9.9831 4.2707-11.778 10.174z"/><path class="cls-1" d="m460.53 133.26c-1.0609 0-4.0803-2.7202-4.0803-3.9171v-21.054a10.282 10.282 0 0 0 -10.527 -10.718c-6.8005 0-10.364 3.9443-14.825 8.5686l-1.3057-7.671h-11.969v2.7202h2.3394c1.0609 0 4.0803 2.8562 4.0803 3.9443v23.965c0 1.2513-3.0194 3.9443-4.0803 3.9443h-4.6515c-1.0609 0-4.1075-2.7202-4.1075-3.9443v-20.456c0-7.4806-6.066-11.234-14.091-11.234a19.341 19.341 0 0 0 -15.152 5.8756l4.978 7.671h2.7202c-2.8562-6.4197-0.73445-10.69 5.6852-10.69s8.9223 3.0194 8.9223 8.3782v4.6516l-9.7927 1.9585c-5.4404 1.0609-12.323 3.7539-12.323 11.234a9.8743 9.8743 0 0 0 9.6295 10.337c5.4404 0 9.6295-4.4611 12.676-8.3782l0.89767 7.671h32.098v-2.7202h-2.1218c-1.0881 0-4.1075-2.7202-4.1075-3.9171v-19.585c0-2.5026 6.9637-7.8614 12.295-7.8614a5.8212 5.8212 0 0 1 6.066 6.4469v20.619c0 1.2513-3.0194 3.9443-4.0803 3.9443h-2.3122v2.7202h19.259v-2.7202h-2.149zm-56.199-8.1606c-1.6049 2.7202-5.4404 6.5829-9.2759 6.5829a5.93 5.93 0 0 1 -6.066 -6.0932c0-3.7539 1.6049-6.2293 6.2565-7.4806l9.0855-2.3394v9.3031z"/><path class="cls-1" d="m465.15 105.43a11.969 11.969 0 0 0 -4.8148 -4.2707h-1.6049v-2.7202h20.021v2.7202h-2.3122c-1.0609 0-3.373 2.7202-3.373 4.1075l8.7318 20.157 8.5686-20.157a5.4404 5.4404 0 0 0 -3.2098 -4.1075h-2.3394v-2.7202h15.179v2.7202h-1.7953c-0.87047 0-3.5635 2.8562-4.4611 4.1075l-12.839 29.079-9.4391 20.864-3.4274-1.6321 9.9831-20.701z"/></g></svg>
