<svg width="39" height="39" xmlns="http://www.w3.org/2000/svg">

 <title>mck</title>
 <g>
  <title>Layer 1</title>
  <path stroke="null" id="svg_1" fill="#051c2c" d="m4.26905,13.5l1.17739,0l0,0.223l-0.22175,0c-0.03878,0 -0.1064,0.045 -0.20385,0.134s-0.14618,0.159 -0.14618,0.205l0,3.4c0,0.047 0.04873,0.115 0.14618,0.205s0.16507,0.135 0.20385,0.135l0.22175,0l0,0.222l-1.73724,0l0,-0.224l0.22175,0c0.03878,0 0.10541,-0.045 0.19888,-0.135s0.14021,-0.158 0.14021,-0.205l0,-3.292l-1.63283,3.937l-1.63084,-4.005l0,3.361c0,0.047 0.04674,0.115 0.13922,0.205s0.1601,0.135 0.19888,0.135l0.22076,0l0,0.222l-1.39815,0l0,-0.223l0.22175,0c0.04674,0 0.11635,-0.045 0.20982,-0.135s0.13922,-0.158 0.13922,-0.205l0,-3.398c0,-0.046 -0.04674,-0.115 -0.13922,-0.205s-0.16308,-0.134 -0.20982,-0.134l-0.22175,0l0,-0.223l1.30467,0l1.3524,3.387l0.0348,0l1.41008,-3.387zm2.79729,4.066a1.06203,1.068 0 0 0 0.57079,-0.128a1.1217,1.128 0 0 0 0.34904,-0.387l0.18695,0a1.68155,1.691 0 0 1 -0.46041,0.761a1.22711,1.234 0 0 1 -0.85619,0.282a1.18435,1.191 0 0 1 -0.96757,-0.446a1.62288,1.632 0 0 1 -0.36097,-1.066a1.55129,1.56 0 0 1 0.40672,-1.137a1.31561,1.323 0 0 1 0.9785,-0.422a1.47671,1.485 0 0 1 0.58273,0.106a1.53438,1.543 0 0 1 0.45445,0.3l-0.42461,0.671l-0.17502,0.011a1.18136,1.188 0 0 0 -0.0348,-0.6a0.43356,0.436 0 0 0 -0.46638,-0.264a0.71996,0.724 0 0 0 -0.6414,0.316a1.47571,1.484 0 0 0 -0.20982,0.833a1.24202,1.249 0 0 0 0.2854,0.832a0.9785,0.984 0 0 0 0.7826,0.338zm2.88977,0.457l-1.76011,0l0,-0.223l0.22474,0c0.04674,0 0.11635,-0.045 0.20982,-0.135s0.13922,-0.158 0.13922,-0.205l0,-3.398c0,-0.046 -0.04574,-0.115 -0.13922,-0.205s-0.16607,-0.134 -0.20982,-0.134l-0.22474,0l0,-0.223l1.76011,0l0,0.223l-0.22175,0c-0.04674,0 -0.11635,0.045 -0.20982,0.134s-0.13922,0.159 -0.13922,0.205l0,1.852l1.60797,-1.805c0.03083,-0.039 0,-0.113 -0.08154,-0.222s-0.14817,-0.164 -0.18695,-0.164l-0.21579,0l0,-0.223l1.63084,0l0,0.223l-0.22175,0a0.83929,0.844 0 0 0 -0.29534,0.177c-0.15612,0.121 -0.2486,0.2 -0.28042,0.229l-1.09386,1.183l1.57316,2.1a1.30467,1.312 0 0 0 0.26153,0.234a0.66725,0.671 0 0 0 0.27446,0.153l0.32617,0a0.36097,0.363 0 0 0 0.19888,-0.117c0.08552,-0.079 0.12828,-0.145 0.12828,-0.2l0,-1.849c0,-0.047 -0.04276,-0.11 -0.12828,-0.188a0.36097,0.363 0 0 0 -0.19888,-0.117l-0.17601,0l0,-0.223l1.03717,0l0,2.379c0,0.055 0.04475,0.121 0.13425,0.2a0.39777,0.4 0 0 0 0.19192,0.117l0.36197,0c0.03878,0 0.09944,-0.039 0.18596,-0.117s0.12828,-0.145 0.12828,-0.2l0,-1.851c0,-0.047 -0.04276,-0.11 -0.12828,-0.188s-0.14717,-0.117 -0.18596,-0.117l-0.18695,0l0,-0.223l0.92083,0l0.11635,0.595a4.98898,5.017 0 0 1 0.50715,-0.469a0.99441,1 0 0 1 0.63444,-0.2a0.79553,0.8 0 0 1 0.57775,0.235a0.80846,0.813 0 0 1 0.23866,0.609l0,1.609c0,0.055 0.04276,0.121 0.12828,0.2s0.14717,0.117 0.18596,0.117l0.18695,0l0,0.222l-1.52643,0l0,-0.223l0.1611,0a0.36396,0.366 0 0 0 0.19888,-0.117c0.08552,-0.079 0.12828,-0.145 0.12828,-0.2l0,-1.569a0.54196,0.545 0 0 0 -0.11734,-0.363a0.4276,0.43 0 0 0 -0.34904,-0.141a1.09386,1.1 0 0 0 -0.63543,0.229q-0.31921,0.228 -0.31921,0.381l0,1.464c0,0.055 0.04276,0.121 0.12828,0.2a0.36097,0.363 0 0 0 0.19888,0.117l0.16308,0l0,0.222l-4.16958,0l-1.56421,-2.261l-0.45445,0.492l0,1.207c0,0.047 0.04574,0.115 0.13922,0.205s0.16308,0.135 0.20982,0.135l0.22175,0l0,0.222zm1.56123,5.1l-0.01392,-0.014c0.14817,0.125 0.29832,0.25 0.44948,0.375s0.31225,0.246 0.48329,0.364l0.2675,0l0,0.234l-0.48925,0a1.53339,1.542 0 0 1 -0.58273,-0.105a1.87745,1.888 0 0 1 -0.53599,-0.364a1.73625,1.746 0 0 1 -0.6235,0.405a2.41145,2.425 0 0 1 -0.84426,0.134a1.50952,1.518 0 0 1 -0.99441,-0.369a1.1933,1.2 0 0 1 -0.44351,-0.967l0,0a1.56521,1.574 0 0 1 0.19888,-0.785a1.68155,1.691 0 0 1 0.52903,-0.574a2.09821,2.11 0 0 1 -0.26253,-0.434a1.24799,1.255 0 0 1 -0.09944,-0.515a0.9437,0.949 0 0 1 0.29037,-0.744a1.14159,1.148 0 0 1 0.79454,-0.264a1.424,1.432 0 0 1 0.49025,0.07a0.94768,0.953 0 0 0 0.32617,0.071a0.54991,0.553 0 0 0 0.12828,-0.012a0.14121,0.142 0 0 0 0.08154,-0.07l0.19888,0l0,1.066l-0.19888,0a0.9616,0.967 0 0 0 -0.29832,-0.574a0.94469,0.95 0 0 0 -0.73984,-0.34a0.88801,0.893 0 0 0 -0.57179,0.17a0.57278,0.576 0 0 0 -0.20982,0.474a0.72791,0.732 0 0 0 0.17502,0.481a1.14358,1.15 0 0 0 0.46638,0.328q0.43058,0.47 0.93177,0.943t0.95563,0.885a1.46776,1.476 0 0 0 0.18098,-0.433a2.19666,2.209 0 0 0 0.0527,-0.5a0.63344,0.637 0 0 0 -0.19292,-0.487a0.72393,0.728 0 0 0 -0.51809,-0.181l0,-0.227l1.59902,0l0,0.211l-0.17402,0c-0.03878,0 -0.11535,0.066 -0.22772,0.2a0.58372,0.587 0 0 0 -0.16905,0.293l0,0.012a2.38659,2.4 0 0 1 -0.11635,0.662a2.05645,2.068 0 0 1 -0.29335,0.579l0,0.002zm-1.52643,0.68a1.6905,1.7 0 0 0 0.54196,-0.082a1.71835,1.728 0 0 0 0.43655,-0.221l-0.0348,-0.023q-0.49721,-0.446 -0.9785,-0.914t-0.93276,-0.985a1.41605,1.424 0 0 0 -0.2675,0.4a1.38422,1.392 0 0 0 -0.09347,0.562a1.16247,1.169 0 0 0 0.42561,0.873a1.31959,1.327 0 0 0 0.90293,0.387l0,0.003zm3.22787,-9.412l-0.01193,0a0.36893,0.371 0 0 1 -0.26153,-0.106a0.33711,0.339 0 0 1 -0.11137,-0.258l0,-0.011a0.34705,0.349 0 0 1 0.11137,-0.276a0.42859,0.431 0 0 1 0.54693,0a0.34705,0.349 0 0 1 0.11137,0.276l-0.01193,0c0.00796,0 0.01193,0 0.01193,0.011a0.33711,0.339 0 0 1 -0.11137,0.258a0.356,0.358 0 0 1 -0.25059,0.106l-0.02287,0zm2.95838,9.386a1.54631,1.555 0 0 0 0.90889,-0.234a1.78995,1.8 0 0 0 0.54693,-0.68l0.23468,0a1.98883,2 0 0 1 -0.68813,0.955a1.84563,1.856 0 0 1 -1.12965,0.346a1.9222,1.933 0 0 1 -1.55029,-0.7a2.49697,2.511 0 0 1 -0.58273,-1.67a2.5467,2.561 0 0 1 0.53599,-1.641a1.78995,1.8 0 0 1 1.47969,-0.679a1.72829,1.738 0 0 1 0.61853,0.1a1.425,1.433 0 0 0 0.52406,0.1a0.36396,0.366 0 0 0 0.16308,-0.03a0.44053,0.443 0 0 0 0.11635,-0.087l0.16308,0l0,1.595l-0.19888,0a1.67062,1.68 0 0 0 -0.36097,-0.879a1.15153,1.158 0 0 0 -1.00237,-0.527a1.23108,1.238 0 0 0 -0.92083,0.346a1.72332,1.733 0 0 0 -0.39777,1.107l0,-0.023q-0.01193,0.129 -0.0179,0.258c0,0.086 -0.00597,0.175 -0.00597,0.269c0,0.109 0,0.221 0.01193,0.334s0.01591,0.217 0.02287,0.311a1.64774,1.657 0 0 0 0.45445,1.013a1.41306,1.421 0 0 0 1.07496,0.416zm3.67933,-6.574a0.82636,0.831 0 0 1 -0.26253,0.656a0.96757,0.973 0 0 1 -0.67024,0.235a1.10877,1.115 0 0 1 -0.46638,-0.088a0.86613,0.871 0 0 0 -0.37291,-0.088a0.20783,0.209 0 0 0 -0.12729,0.029l-0.09347,0.076l-0.13524,0l0,-1.031l0.17502,0a0.9437,0.949 0 0 0 0.27346,0.528a0.93276,0.938 0 0 0 0.75178,0.328a0.80249,0.807 0 0 0 0.41964,-0.094a0.32816,0.33 0 0 0 0.15115,-0.3a0.38384,0.386 0 0 0 -0.17999,-0.357a3.08268,3.1 0 0 0 -0.36694,-0.194c-0.10939,-0.046 -0.20783,-0.089 -0.29832,-0.128s-0.19292,-0.082 -0.30926,-0.129a1.5314,1.54 0 0 1 -0.44251,-0.311a0.66626,0.67 0 0 1 -0.17502,-0.486a0.75377,0.758 0 0 1 0.23369,-0.6a1.10678,1.113 0 0 1 1.04215,-0.129a0.73189,0.736 0 0 0 0.3212,0.077a0.24164,0.243 0 0 0 0.09944,-0.018a0.12729,0.128 0 0 0 0.06464,-0.065l0.15115,0l0,0.9l-0.17502,0a0.84724,0.852 0 0 0 -0.23866,-0.469a0.79553,0.8 0 0 0 -0.64637,-0.293a0.5688,0.572 0 0 0 -0.37887,0.106a0.33611,0.338 0 0 0 -0.12231,0.269a0.32219,0.324 0 0 0 0.12828,0.281a2.25633,2.269 0 0 0 0.34904,0.2c0.10939,0.046 0.21181,0.089 0.30926,0.128l0.3202,0.129a1.57416,1.583 0 0 1 0.45445,0.293a0.69609,0.7 0 0 1 0.22175,0.542l-0.00497,0.003zm0.76272,4.289a1.45781,1.466 0 0 1 0.43754,1.125a1.47372,1.482 0 0 1 -0.43754,1.131a1.424,1.432 0 0 1 -1.00734,0.416a1.43892,1.447 0 0 1 -1.02027,-0.416a1.47372,1.482 0 0 1 -0.43655,-1.131a1.44488,1.453 0 0 1 1.45682,-1.535a1.43494,1.443 0 0 1 1.01231,0.41l-0.00497,0zm-0.14021,1.608l0,0.023c0.00796,-0.086 0.01293,-0.172 0.01691,-0.258s0.00597,-0.172 0.00597,-0.258s0,-0.169 -0.00597,-0.251s-0.00895,-0.159 -0.01691,-0.229a0.96558,0.971 0 0 0 -0.25059,-0.574a0.81542,0.82 0 0 0 -0.61156,-0.211a0.79553,0.8 0 0 0 -0.59665,0.211a0.95265,0.958 0 0 0 -0.25059,0.562l0,-0.015a1.71636,1.726 0 0 0 -0.02884,0.246c0,0.086 -0.00597,0.172 -0.00597,0.257s0,0.17 0.00597,0.252a1.42301,1.431 0 0 0 0.02884,0.229a1.00038,1.006 0 0 0 0.25059,0.562a0.77465,0.779 0 0 0 0.59665,0.223a0.79553,0.8 0 0 0 0.61753,-0.217a0.99441,1 0 0 0 0.24463,-0.552zm0.95563,-5a1.20622,1.213 0 0 1 -0.9616,-0.451a1.602,1.611 0 0 1 -0.37887,-1.073a1.60996,1.619 0 0 1 0.38484,-1.1a1.18037,1.187 0 0 1 0.95563,-0.434a0.98546,0.991 0 0 1 0.76272,0.3a1.10977,1.116 0 0 1 0.29832,0.721l0.01193,0.211l-1.93513,0.156a1.24003,1.247 0 0 0 0.27844,0.77a0.91287,0.918 0 0 0 0.76868,0.369a1.09386,1.1 0 0 0 0.57676,-0.128a1.03021,1.036 0 0 0 0.34407,-0.376l0.17502,0a1.57515,1.584 0 0 1 -0.44351,0.756a1.20225,1.209 0 0 1 -0.8373,0.273l0,0.006zm-0.01193,-2.836a0.7299,0.734 0 0 0 -0.6583,0.31a1.23606,1.243 0 0 0 -0.21579,0.651l1.45682,-0.125a1.23009,1.237 0 0 0 -0.06464,-0.581q-0.09546,-0.26 -0.51809,-0.261l0,0.006zm3.51923,8.6c0.04674,0 0.11038,-0.041 0.19192,-0.123s0.12231,-0.146 0.12231,-0.193l0,-1.6a0.52306,0.526 0 0 0 -0.11038,-0.346a0.43356,0.436 0 0 0 -0.35501,-0.135a0.95364,0.959 0 0 0 -0.56582,0.211q-0.2854,0.212 -0.2854,0.352l0,1.523c0,0.047 0.04077,0.111 0.12231,0.193s0.1422,0.123 0.18098,0.123l0.17502,0l0,0.223l-1.49162,0l0,-0.223l0.16308,0c0.04674,0 0.11038,-0.041 0.19192,-0.123s0.12231,-0.146 0.12231,-0.193l0,-1.6a0.52406,0.527 0 0 0 -0.11635,-0.358a0.43754,0.44 0 0 0 -0.35003,-0.135a0.94171,0.947 0 0 0 -0.57676,0.223q-0.2854,0.222 -0.2854,0.375l0,1.5c0,0.047 0.04077,0.111 0.12231,0.193s0.14618,0.123 0.19292,0.123l0.16308,0l0,0.223l-1.49162,0l0,-0.223l0.17502,0c0.03878,0 0.09944,-0.041 0.17999,-0.123s0.12231,-0.146 0.12231,-0.193l0,-1.867c0,-0.046 -0.04077,-0.109 -0.12231,-0.187s-0.14121,-0.117 -0.17999,-0.117l-0.17502,0l0,-0.223l0.89497,0l0.11635,0.563q0.25656,-0.27 0.46638,-0.452a0.88503,0.89 0 0 1 0.59665,-0.181a0.85719,0.862 0 0 1 0.51212,0.158a0.65731,0.661 0 0 1 0.26849,0.463c0.178,-0.172 0.34208,-0.317 0.48925,-0.434a0.91387,0.919 0 0 1 0.58273,-0.176a0.81045,0.815 0 0 1 0.57079,0.217a0.79553,0.8 0 0 1 0.23369,0.616l0,1.6c0,0.047 0.04077,0.111 0.12231,0.193s0.14121,0.123 0.17999,0.123l0.17502,0l0,0.223l-1.49162,0l0,-0.223l0.16308,0.01zm-1.94607,-8.2a0.79553,0.8 0 0 0 -0.18098,-0.2c-0.09944,-0.086 -0.16507,-0.129 -0.19888,-0.129l-0.12828,0l0,-0.23l1.57316,0l0,0.223l-0.18596,0c-0.03878,0 -0.0895,0.039 -0.15115,0.117a0.34307,0.345 0 0 0 -0.09347,0.2l0.69609,1.441l0.6414,-1.43a0.28937,0.291 0 0 0 -0.08751,-0.211q-0.09944,-0.117 -0.15811,-0.117l-0.19192,0l0,-0.223l1.17739,0l0,0.223l-0.12828,0c-0.03878,0 -0.09944,0.041 -0.18098,0.123a0.73388,0.738 0 0 0 -0.15712,0.205l-0.99441,2.121l-0.8552,1.653l-0.25358,-0.13l0.88503,-1.606l-1.02723,-2.03zm5.27935,5.426a0.98646,0.992 0 0 1 0.83829,0.41a1.75614,1.766 0 0 1 0.29832,1.078a1.78995,1.8 0 0 1 -0.3381,1.125a1.03916,1.045 0 0 1 -0.86216,0.446a1.11772,1.124 0 0 1 -0.61156,-0.147a1.20424,1.211 0 0 1 -0.3908,-0.439l0,1.406c0,0.055 0.04276,0.121 0.12828,0.2s0.14817,0.117 0.18695,0.117l0.18794,0l0,0.214l-1.53538,0l0,-0.223l0.18695,0a0.3391,0.341 0 0 0 0.19192,-0.117a0.31324,0.315 0 0 0 0.12231,-0.2l0,-3.269c0,-0.046 -0.04077,-0.109 -0.12231,-0.187a0.3391,0.341 0 0 0 -0.19192,-0.117l-0.18695,0l0,-0.235l0.9437,0l0.09347,0.61a1.43693,1.445 0 0 1 0.44848,-0.516a1.10082,1.107 0 0 1 0.61256,-0.164l0,0.008zm0.58273,1.969l0,0.011l0.02287,-0.234a2.2792,2.292 0 0 0 0.01193,-0.234a1.6905,1.7 0 0 0 -0.01193,-0.205c-0.00796,-0.067 -0.01591,-0.131 -0.02287,-0.194a0.99441,1 0 0 0 -0.23369,-0.556a0.64438,0.648 0 0 0 -0.49721,-0.2a0.77863,0.783 0 0 0 -0.58273,0.228a1.39218,1.4 0 0 0 -0.32617,0.568l0,0.762a0.79553,0.8 0 0 0 0.24463,0.586a0.81045,0.815 0 0 0 0.59665,0.246l0.01193,0a0.69609,0.7 0 0 0 0.55886,-0.217a1.04712,1.053 0 0 0 0.22772,-0.569l0,0.008zm6.58402,0.492c0,0.047 0.04276,0.111 0.12828,0.193s0.14717,0.123 0.18596,0.123l0.17502,0l0,0.223l-1.52643,0l0,-0.223l0.16905,0c0.03978,0 0.09944,-0.041 0.18695,-0.123s0.12828,-0.146 0.12828,-0.193l0,-1.59a0.56781,0.571 0 0 0 -0.11038,-0.357a0.40572,0.408 0 0 0 -0.34407,-0.147a1.08093,1.087 0 0 0 -0.63543,0.234q-0.3212,0.236 -0.3202,0.375l0,1.477c0,0.055 0.04276,0.121 0.12828,0.2a0.36097,0.363 0 0 0 0.19888,0.117l0.17104,0l0,0.223l-2.4741,0l-0.08154,-0.609a3.47249,3.492 0 0 1 -0.40771,0.451a0.79553,0.8 0 0 1 -0.55986,0.217a0.71797,0.722 0 0 1 -0.52406,-0.223a0.77067,0.775 0 0 1 -0.22175,-0.574a0.65532,0.659 0 0 1 0.3202,-0.627a2.36571,2.379 0 0 1 0.6235,-0.252l0.75774,-0.153l0.01193,-0.351a0.69609,0.7 0 0 0 -0.16308,-0.486a0.72891,0.733 0 0 0 -0.55986,-0.182a0.534,0.537 0 0 0 -0.50715,0.234a0.66427,0.668 0 0 0 0.02983,0.61l-0.20982,0l-0.39777,-0.586a1.62985,1.639 0 0 1 1.21219,-0.469a1.3703,1.378 0 0 1 0.80448,0.229a0.75377,0.758 0 0 1 0.32617,0.662l0,1.57c0,0.047 0.04276,0.109 0.12828,0.187s0.14717,0.118 0.18596,0.118l0.35003,0a0.35799,0.36 0 0 0 0.19888,-0.118c0.08552,-0.078 0.12828,-0.14 0.12828,-0.187l0,-1.853c0,-0.046 -0.04276,-0.109 -0.12828,-0.187a0.36097,0.363 0 0 0 -0.19888,-0.117l-0.17502,0l0,-0.235l0.92083,0l0.11635,0.61a5.42155,5.452 0 0 1 0.49721,-0.469a0.98546,0.991 0 0 1 0.6404,-0.2a0.79553,0.8 0 0 1 0.57676,0.234a0.80746,0.812 0 0 1 0.23965,0.61l0.00497,1.614zm-4.02042,-1.039l-0.69609,0.176a0.64637,0.65 0 0 0 -0.38484,0.216a0.59665,0.6 0 0 0 -0.10541,0.358l0,0.011a0.44948,0.452 0 0 0 0.12828,0.323a0.41865,0.421 0 0 0 0.31523,0.134l0.01691,0a0.65731,0.661 0 0 0 0.41964,-0.175a1.30964,1.317 0 0 0 0.29832,-0.34l0.00796,-0.703zm7.41137,-1.348l0,0.223l-0.14021,0c-0.03083,0 -0.08751,0.041 -0.16905,0.123a1.48168,1.49 0 0 0 -0.16905,0.193l-0.9785,2.133l-0.87409,1.641l-0.24463,-0.129l0.87409,-1.606l-1.02524,-2.027a0.81741,0.822 0 0 0 -0.18098,-0.2c-0.09944,-0.086 -0.1611,-0.129 -0.19192,-0.129l-0.14021,0l0,-0.222l1.57316,0l0,0.223l-0.17502,0c-0.03878,0 -0.09149,0.039 -0.15712,0.117a0.3381,0.34 0 0 0 -0.09944,0.2l0.69609,1.442l0.64438,-1.446a0.26849,0.27 0 0 0 -0.08751,-0.2c-0.06563,-0.078 -0.11834,-0.117 -0.15712,-0.117l-0.18596,0l0,-0.219l1.18833,0z" class="a"/>
 </g>
</svg>