<?xml version="1.0" standalone="no"?>
<!DOCTYPE svg PUBLIC "-//W3C//DTD SVG 20010904//EN"
 "http://www.w3.org/TR/2001/REC-SVG-20010904/DTD/svg10.dtd">
<svg version="1.0" xmlns="http://www.w3.org/2000/svg"
 width="300.000000pt" height="300.000000pt" viewBox="0 0 300.000000 300.000000"
 preserveAspectRatio="xMidYMid meet">

<g transform="translate(0.000000,300.000000) scale(0.100000,-0.100000)"
fill="#000000" stroke="none">
<path d="M620 1515 l0 -875 865 0 865 0 0 490 0 490 -30 0 -30 0 0 -460 0
-460 -805 0 -805 0 0 815 0 815 805 0 805 0 0 -190 0 -190 30 0 30 0 0 220 0
220 -865 0 -865 0 0 -875z"/>
<path d="M860 1318 c0 -485 2 -570 14 -558 11 13 729 1082 750 1118 6 9 -73
12 -378 12 l-386 0 0 -572z"/>
<path d="M1599 1768 c-45 -68 -138 -205 -206 -305 l-123 -182 2 -267 3 -266
365 543 c201 298 373 555 383 571 l19 28 -181 0 -181 0 -81 -122z"/>
<path d="M1879 1580 l-207 -310 -1 -260 c-1 -143 2 -260 6 -260 4 0 45 56 89
123 45 67 217 323 382 570 l301 447 -182 0 -182 -1 -206 -309z"/>
</g>
</svg>
